<svg xmlns="http://www.w3.org/2000/svg" xmlns:xlink="http://www.w3.org/1999/xlink" width="500" zoomAndPan="magnify" viewBox="0 0 375 809.999993" height="1080" preserveAspectRatio="xMidYMid meet" version="1.0"><defs><clipPath id="d0fc1c0e4a"><path d="M 76 754 L 375 754 L 375 805.5 L 76 805.5 Z M 76 754 " clip-rule="nonzero"/></clipPath><clipPath id="75caddb7d5"><path d="M 267 754 L 375 754 L 375 805.5 L 267 805.5 Z M 267 754 " clip-rule="nonzero"/></clipPath></defs><path fill="#f8a283" d="M 255.453125 787.804688 C 285.15625 777.429688 299.804688 772.140625 299.804688 772.140625 C 299.804688 772.140625 305.5 695.863281 316.894531 543.507812 C 278.035156 543.507812 258.707031 543.507812 258.707031 543.507812 C 256.46875 706.441406 255.453125 787.804688 255.453125 787.804688 Z M 255.453125 787.804688 " fill-opacity="1" fill-rule="evenodd"/><path fill="#ffffff" d="M 212.929688 368.375 C 193.808594 427.972656 202.960938 497.742188 240.601562 577.273438 C 286.375 579.714844 316.894531 578.292969 332.558594 573.410156 C 349.242188 479.636719 354.53125 410.074219 348.226562 364.914062 C 258.097656 367.355469 212.929688 368.375 212.929688 368.375 Z M 212.929688 368.375 " fill-opacity="1" fill-rule="evenodd"/><path fill="#604734" d="M 308.554688 157.03125 C 259.519531 184.695312 222.289062 187.542969 196.859375 165.167969 C 192.992188 147.066406 178.546875 76.683594 187.296875 37.425781 C 191.773438 18.308594 202.960938 8.136719 220.867188 12 C 224.730469 4.066406 238.363281 0 250.773438 0 C 321.980469 0.40625 309.164062 109.230469 308.554688 157.03125 Z M 308.554688 157.03125 " fill-opacity="1" fill-rule="evenodd"/><path fill="#f8a283" d="M 53.832031 221.308594 C 43.457031 237.378906 38.371094 245.3125 38.371094 245.3125 C 12.941406 226.597656 0.324219 211.136719 0.9375 199.339844 C 1.546875 195.476562 1.75 189.171875 1.546875 180.628906 C 0.324219 153.167969 14.972656 182.457031 26.773438 195.679688 C 24.738281 187.542969 23.722656 180.628906 25.148438 176.152344 C 29.621094 176.152344 40.609375 196.085938 53.832031 221.308594 Z M 53.832031 221.308594 " fill-opacity="1" fill-rule="evenodd"/><path fill="#604734" d="M 43.050781 259.144531 C 52.816406 231.480469 57.699219 217.648438 57.699219 217.648438 C 54.648438 214.597656 52.410156 212.359375 50.984375 210.730469 C 45.898438 210.324219 30.84375 227.613281 32.0625 244.292969 C 39.386719 254.058594 43.050781 259.144531 43.050781 259.144531 Z M 43.050781 259.144531 " fill-opacity="1" fill-rule="evenodd"/><path fill="#ffffff" d="M 302.652344 146.863281 C 264.609375 152.148438 233.480469 153.167969 209.472656 150.117188 C 199.300781 154.183594 191.367188 160.691406 185.464844 169.644531 C 169.1875 194.664062 178.546875 253.652344 156.980469 269.925781 C 135.417969 285.992188 68.886719 215.816406 58.917969 214.191406 C 45.898438 217.445312 37.964844 230.054688 35.320312 252.226562 C 87.808594 334.199219 147.828125 360.644531 189.535156 350.472656 C 189.535156 350.472656 195.027344 354.542969 354.53125 353.523438 C 359.007812 302.0625 369.996094 178.796875 324.828125 158.253906 C 318.523438 155.40625 311.402344 151.335938 302.652344 146.863281 Z M 302.652344 146.863281 " fill-opacity="1" fill-rule="evenodd"/><path fill="#604734" d="M 214.355469 150.726562 C 213.339844 205.035156 222.085938 240.429688 240.601562 257.515625 C 259.316406 240.835938 271.320312 205.035156 276.816406 149.914062 C 235.105469 150.523438 214.355469 150.726562 214.355469 150.726562 Z M 214.355469 150.726562 " fill-opacity="1" fill-rule="evenodd"/><path fill="#f8a283" d="M 214.355469 150.726562 C 213.339844 205.035156 222.085938 240.429688 240.601562 257.515625 C 259.316406 240.835938 271.320312 205.035156 276.816406 149.914062 C 235.105469 150.523438 214.355469 150.726562 214.355469 150.726562 Z M 214.355469 150.726562 " fill-opacity="0.502" fill-rule="evenodd"/><path fill="#604734" d="M 288.613281 384.035156 L 162.273438 384.035156 L 162.273438 770.71875 L 288.613281 770.71875 Z M 288.613281 384.035156 " fill-opacity="1" fill-rule="evenodd"/><path fill="#f8a283" d="M 288.613281 384.035156 L 240.601562 384.035156 L 240.601562 770.71875 L 288.613281 770.71875 Z M 288.613281 384.035156 " fill-opacity="0.2" fill-rule="evenodd"/><g clip-path="url(#d0fc1c0e4a)"><path fill="#604734" d="M 369.179688 754.242188 L 81.707031 754.242188 C 78.652344 754.242188 76.210938 756.070312 76.210938 758.105469 L 76.210938 801.636719 C 76.210938 803.871094 78.652344 805.5 81.707031 805.5 L 369.179688 805.5 C 372.234375 805.5 374.675781 803.667969 374.675781 801.636719 L 374.675781 758.105469 C 374.675781 756.070312 372.234375 754.242188 369.179688 754.242188 Z M 369.179688 754.242188 " fill-opacity="1" fill-rule="evenodd"/></g><g clip-path="url(#75caddb7d5)"><path fill="#f8a283" d="M 370.808594 754.242188 L 267.863281 754.242188 L 267.863281 805.5 L 370.808594 805.5 C 372.84375 805.5 374.675781 803.667969 374.675781 801.636719 L 374.675781 758.105469 C 374.675781 756.070312 372.84375 754.242188 370.808594 754.242188 Z M 370.808594 754.242188 " fill-opacity="0.2" fill-rule="evenodd"/></g><path fill="#f8a283" d="M 277.425781 138.726562 C 274.984375 150.320312 264.609375 161.914062 243.855469 176.964844 C 233.480469 167.40625 227.578125 158.660156 223.917969 145.234375 C 226.5625 136.691406 227.578125 128.757812 226.96875 121.636719 C 238.566406 104.144531 254.027344 91.535156 273.558594 84.007812 C 267.253906 105.367188 268.675781 123.671875 277.425781 138.726562 Z M 277.425781 138.726562 " fill-opacity="1" fill-rule="evenodd"/><path fill="#9e5741" d="M 225.953125 137.300781 C 226.96875 131.808594 227.375 126.519531 226.96875 121.84375 C 238.566406 104.347656 254.027344 91.738281 273.558594 84.210938 C 270.710938 93.773438 269.492188 102.722656 269.695312 111.0625 C 264.609375 131.605469 242.226562 145.234375 225.953125 137.300781 Z M 225.953125 137.300781 " fill-opacity="1" fill-rule="evenodd"/><path fill="#f8a283" d="M 212.523438 38.851562 L 238.363281 38.851562 C 251.179688 38.851562 270.304688 59.800781 267.050781 74.855469 L 262.777344 94.585938 C 259.519531 109.027344 245.078125 121.027344 230.222656 121.636719 C 227.171875 121.84375 223.105469 121.84375 220.253906 121.230469 C 207.640625 118.996094 197.46875 106.992188 197.265625 94.382812 L 196.859375 77.09375 L 196.859375 74.652344 L 196.453125 54.71875 C 196.042969 45.96875 203.371094 38.851562 212.523438 38.851562 Z M 212.523438 38.851562 " fill-opacity="1" fill-rule="evenodd"/><path fill="#604734" d="M 203.582031 66.140625 C 203.234375 66.167969 202.902344 66.28125 202.59375 66.476562 C 202.28125 66.675781 202.015625 66.949219 201.792969 67.289062 C 201.570312 67.632812 201.40625 68.019531 201.304688 68.449219 C 201.199219 68.882812 201.164062 69.328125 201.199219 69.785156 C 201.234375 70.242188 201.332031 70.675781 201.5 71.089844 C 201.664062 71.503906 201.882812 71.863281 202.152344 72.167969 C 202.425781 72.472656 202.726562 72.699219 203.0625 72.851562 C 203.398438 73 203.742188 73.0625 204.09375 73.039062 C 204.441406 73.011719 204.773438 72.898438 205.082031 72.703125 C 205.394531 72.503906 205.660156 72.230469 205.882812 71.890625 C 206.105469 71.550781 206.269531 71.160156 206.371094 70.730469 C 206.476562 70.296875 206.507812 69.851562 206.476562 69.394531 C 206.441406 68.9375 206.34375 68.503906 206.175781 68.089844 C 206.011719 67.675781 205.792969 67.320312 205.523438 67.011719 C 205.25 66.707031 204.945312 66.480469 204.609375 66.328125 C 204.273438 66.179688 203.933594 66.117188 203.582031 66.140625 Z M 203.582031 66.140625 " fill-opacity="1" fill-rule="nonzero"/><path fill="#9e5741" d="M 222.085938 89.703125 C 223.511719 89.09375 224.933594 88.28125 224.527344 87.261719 C 224.324219 86.855469 223.105469 87.058594 221.882812 87.261719 C 219.847656 87.464844 218.832031 87.464844 217 87.261719 C 215.78125 87.058594 214.558594 86.855469 214.355469 87.261719 C 214.152344 88.074219 215.574219 89.09375 217.203125 89.703125 C 219.441406 90.515625 220.050781 90.515625 222.085938 89.703125 Z M 222.085938 89.703125 " fill-opacity="1" fill-rule="evenodd"/><path fill="#604734" d="M 195.027344 63.261719 C 195.433594 63.261719 196.25 62.851562 197.265625 62.242188 C 198.484375 61.632812 200.113281 61.023438 201.335938 60.820312 C 203.980469 60.414062 205.808594 61.226562 208.457031 61.226562 C 209.675781 61.226562 210.285156 61.023438 210.488281 60.617188 C 210.898438 59.597656 207.84375 57.363281 204.386719 57.566406 C 201.742188 57.566406 199.300781 58.582031 197.265625 60.210938 C 196.65625 60.414062 193.808594 63.058594 195.027344 63.261719 Z M 195.027344 63.261719 " fill-opacity="1" fill-rule="evenodd"/><path fill="#604734" d="M 237.679688 65.652344 C 237.328125 65.679688 237 65.789062 236.6875 65.988281 C 236.378906 66.1875 236.113281 66.460938 235.890625 66.800781 C 235.664062 67.140625 235.503906 67.53125 235.398438 67.960938 C 235.296875 68.394531 235.261719 68.839844 235.296875 69.296875 C 235.332031 69.753906 235.429688 70.1875 235.59375 70.601562 C 235.761719 71.015625 235.976562 71.371094 236.25 71.679688 C 236.519531 71.984375 236.824219 72.210938 237.160156 72.363281 C 237.496094 72.511719 237.839844 72.574219 238.191406 72.550781 C 238.539062 72.523438 238.871094 72.410156 239.179688 72.210938 C 239.488281 72.015625 239.757812 71.742188 239.980469 71.402344 C 240.203125 71.058594 240.367188 70.671875 240.46875 70.242188 C 240.570312 69.808594 240.605469 69.363281 240.570312 68.90625 C 240.539062 68.449219 240.4375 68.015625 240.273438 67.601562 C 240.109375 67.1875 239.890625 66.828125 239.617188 66.523438 C 239.347656 66.21875 239.042969 65.992188 238.707031 65.839844 C 238.371094 65.6875 238.027344 65.625 237.679688 65.652344 Z M 237.679688 65.652344 " fill-opacity="1" fill-rule="nonzero"/><path fill="#604734" d="M 247.3125 62.648438 C 246.90625 62.648438 246.09375 62.242188 244.871094 61.632812 C 243.449219 61.023438 241.820312 60.414062 240.398438 60.210938 C 237.546875 59.800781 235.515625 60.617188 232.871094 60.617188 C 231.648438 60.617188 230.835938 60.414062 230.632812 60.003906 C 230.019531 58.988281 233.277344 56.75 236.9375 56.953125 C 239.785156 56.953125 242.429688 57.972656 244.667969 59.597656 C 245.484375 59.800781 248.535156 62.445312 247.3125 62.648438 Z M 247.3125 62.648438 " fill-opacity="1" fill-rule="evenodd"/><path fill="#ffffff" d="M 215.984375 100.6875 C 216.1875 103.535156 220.253906 105.570312 225.136719 105.570312 C 230.019531 105.570312 234.089844 103.332031 233.886719 100.6875 C 233.886719 100.078125 233.277344 99.46875 232.667969 99.46875 L 217.203125 99.46875 C 216.390625 99.46875 215.984375 100.078125 215.984375 100.6875 Z M 215.984375 100.6875 " fill-opacity="1" fill-rule="evenodd"/><path fill="#f8a283" d="M 262.574219 75.464844 C 261.351562 87.464844 260.742188 93.363281 260.742188 93.363281 C 272.746094 90.925781 279.664062 84.210938 282.105469 77.5 C 289.023438 58.785156 268.066406 54.511719 262.574219 75.464844 Z M 262.574219 75.464844 " fill-opacity="1" fill-rule="evenodd"/><path fill="#9e5741" d="M 265.015625 78.109375 C 264.199219 85.226562 263.792969 88.890625 263.792969 88.890625 C 270.914062 87.464844 275.1875 83.398438 276.609375 79.328125 C 281.085938 67.9375 268.472656 65.496094 265.015625 78.109375 Z M 265.015625 78.109375 " fill-opacity="1" fill-rule="evenodd"/><path fill="#604734" d="M 258.300781 25.019531 C 268.675781 33.765625 271.933594 43.9375 268.269531 55.53125 C 267.253906 63.667969 265.015625 72.617188 261.960938 81.972656 C 263.996094 58.785156 253.621094 68.550781 231.242188 55.328125 C 224.527344 51.460938 220.050781 45.765625 217.8125 38.851562 C 225.339844 24.410156 238.972656 19.933594 258.300781 25.019531 Z M 258.300781 25.019531 " fill-opacity="1" fill-rule="evenodd"/><path fill="#5e4e5d" d="M 253.417969 262.398438 C 247.519531 259.550781 244.464844 258.125 244.464844 258.125 C 257.285156 211.34375 266.4375 166.796875 271.726562 124.691406 C 283.324219 133.84375 296.957031 141.777344 312.824219 148.082031 C 309.773438 167.40625 299.601562 197.101562 282.511719 236.769531 C 276.203125 230.871094 272.949219 227.816406 272.949219 227.816406 C 259.929688 250.804688 253.417969 262.398438 253.417969 262.398438 Z M 253.417969 262.398438 " fill-opacity="1" fill-rule="evenodd"/><path fill="#5e4e5d" d="M 236.125 257.109375 C 238.972656 257.3125 240.398438 257.3125 240.398438 257.3125 C 232.871094 221.714844 227.988281 181.644531 225.75 137.097656 C 220.253906 141.980469 212.523438 146.453125 201.945312 150.523438 C 200.519531 160.082031 205.605469 186.527344 217.203125 229.851562 C 221.882812 225.785156 223.714844 224.359375 222.695312 225.175781 C 231.851562 246.53125 236.125 257.109375 236.125 257.109375 Z M 236.125 257.109375 " fill-opacity="1" fill-rule="evenodd"/><path fill="#604734" d="M 196.859375 350.472656 C 220.457031 288.230469 180.175781 265.246094 198.078125 203.613281 C 190.753906 236.769531 195.839844 263.617188 213.132812 284.367188 C 235.3125 309.996094 246.90625 331.964844 247.722656 350.675781 C 215.167969 350.675781 196.859375 350.472656 196.859375 350.472656 Z M 37.558594 239.617188 C 36.539062 243.480469 35.726562 247.550781 35.117188 252.226562 C 76.210938 316.503906 122.191406 346.609375 160.035156 351.695312 C 162.273438 348.03125 164.101562 343.761719 165.324219 338.675781 C 128.5 337.660156 85.976562 304.503906 37.558594 239.617188 Z M 272.746094 270.535156 C 283.730469 299.621094 297.160156 314.878906 313.027344 315.894531 C 313.84375 300.027344 314.046875 268.90625 313.640625 222.734375 C 308.757812 259.347656 295.125 275.210938 272.746094 270.535156 Z M 272.746094 270.535156 " fill-opacity="0.2" fill-rule="evenodd"/><path fill="#f8a283" d="M 254.230469 258.941406 C 243.855469 275.007812 238.769531 282.941406 238.769531 282.941406 C 213.339844 264.226562 200.722656 248.769531 201.335938 236.972656 C 201.945312 233.105469 202.148438 226.800781 201.945312 218.257812 C 200.722656 190.796875 215.371094 220.089844 227.171875 233.308594 C 225.136719 225.175781 224.121094 218.257812 225.546875 213.78125 C 229.816406 213.78125 240.804688 233.71875 254.230469 258.941406 Z M 254.230469 258.941406 " fill-opacity="1" fill-rule="evenodd"/><path fill="#604734" d="M 243.246094 303.078125 C 257.894531 274.804688 265.21875 260.769531 265.21875 260.769531 C 256.671875 253.449219 252.605469 249.785156 252.605469 249.785156 C 246.703125 250.804688 234.699219 274.398438 235.105469 288.230469 C 240.601562 298.199219 243.246094 303.078125 243.246094 303.078125 Z M 243.246094 303.078125 " fill-opacity="1" fill-rule="evenodd"/><path fill="#ffffff" d="M 280.273438 364.304688 C 327.269531 353.933594 350.871094 348.847656 350.871094 348.847656 C 324.21875 313.859375 264.609375 245.921875 256.671875 251.617188 C 247.925781 260.363281 237.957031 289.042969 239.785156 300.84375 C 265.625 342.746094 280.273438 364.304688 280.273438 364.304688 Z M 280.273438 364.304688 " fill-opacity="1" fill-rule="evenodd"/><path fill="#604734" d="M 280.273438 364.304688 L 305.703125 358.609375 C 270.304688 320.164062 250.164062 291.484375 244.871094 272.976562 C 241.210938 283.347656 238.769531 294.332031 239.785156 300.640625 C 265.625 342.746094 280.273438 364.304688 280.273438 364.304688 Z M 280.273438 364.304688 " fill-opacity="0.2" fill-rule="evenodd"/><path fill="#5e4e5d" d="M 209.472656 335.015625 L 148.4375 335.015625 C 147.011719 335.015625 145.792969 336.234375 145.792969 337.660156 L 145.792969 347.828125 C 145.792969 349.253906 147.011719 350.472656 148.4375 350.472656 L 209.472656 350.472656 C 210.898438 350.472656 212.117188 349.253906 212.117188 347.828125 L 212.117188 337.660156 C 212.117188 336.234375 210.898438 335.015625 209.472656 335.015625 Z M 209.472656 335.015625 " fill-opacity="1" fill-rule="evenodd"/><path fill="#5e4e5d" d="M 188.925781 210.730469 C 190.957031 203.816406 187.09375 196.492188 180.175781 194.460938 C 173.257812 192.425781 165.933594 196.289062 163.898438 203.207031 L 155.761719 230.054688 C 153.929688 235.953125 156.574219 241.851562 161.457031 244.90625 L 158.40625 254.667969 L 178.75 340.914062 L 185.058594 339.488281 L 165.121094 254.871094 L 167.5625 246.734375 C 173.460938 246.9375 178.75 243.277344 180.582031 237.378906 Z M 188.925781 210.730469 " fill-opacity="1" fill-rule="nonzero"/><path fill="#604734" d="M 369.179688 346 L 81.707031 346 C 78.652344 346 76.210938 348.441406 76.210938 351.492188 L 76.210938 412.511719 C 76.210938 415.566406 78.652344 418.003906 81.707031 418.003906 L 369.179688 418.003906 C 372.234375 418.003906 374.675781 415.566406 374.675781 412.511719 L 374.675781 351.492188 C 374.675781 348.441406 372.234375 346 369.179688 346 Z M 369.179688 346 " fill-opacity="1" fill-rule="evenodd"/><path fill="#f8a283" d="M 369.179688 346 L 267.863281 346 L 267.863281 417.800781 L 369.179688 417.800781 C 372.234375 417.800781 374.675781 415.363281 374.675781 412.308594 L 374.675781 351.289062 C 374.675781 348.441406 372.234375 346 369.179688 346 Z M 369.179688 346 " fill-opacity="0.2" fill-rule="evenodd"/></svg>